<svg width="100" height="124" viewBox="0 0 100 124" fill="none" xmlns="http://www.w3.org/2000/svg">
<path d="M19.5559 3.77956C29.7696 -1.32985 40.8344 -0.174152 45.0901 1.04237C77.0078 11.0786 66.0646 40.2755 60.593 53.049C55.1214 65.8225 60.593 67.6473 63.3288 81.3332C66.0646 95.0192 56.9452 108.705 42.3543 105.968C27.7633 103.231 27.7633 86.8076 28.6753 81.3332C29.5872 75.8589 22.2917 69.4721 15.9082 65.8225C9.52464 62.173 4.05304 49.3994 1.31724 42.1003C-1.41856 34.8011 0.405304 24.7648 4.05304 20.2028C7.70078 15.6408 6.78884 10.1663 19.5559 3.77956Z" fill="#F77007"/>
<path d="M82.1278 22.7136C91.612 29.2828 90.9432 30.3169 89.4233 30.0128C93.8006 32.2024 94.287 35.7913 93.983 37.312C93.983 40.9616 91.2472 40.9616 86.6875 46.436C83.0398 50.8155 74.2244 57.993 70.2727 61.0343L73.9204 66.5087C81.5199 71.0706 97.2659 82.0194 99.4546 89.3185C101.643 96.6177 96.7188 99.0507 93.983 99.3549C92.5239 105.924 88.5114 106.35 86.6875 105.742C73.5557 105.012 64.8011 91.4475 62.0653 84.7566C55.4994 83.2967 50.2101 75.0243 48.3863 71.0706C46.8664 71.3748 43.2794 70.8882 41.0908 66.5087C38.355 61.0343 38.355 59.2095 43.8266 52.8227C49.2982 46.436 60.2414 45.5236 59.3295 42.7864C58.5999 40.5966 60.8494 37.0079 62.0653 35.4872C58.7215 32.4459 51.3045 25.6333 48.3863 22.7136C44.7385 19.0639 33.7953 9.02767 34.7073 4.46569C35.4368 0.81611 39.2669 1.7285 41.0908 2.6409C50.8181 6.59461 72.6437 16.1443 82.1278 22.7136Z" fill="#F7AE07"/>
<path d="M55.2132 97.7686L57.949 111.455C63.4206 109.63 65.2444 116.929 60.6848 118.754C55.2632 120.923 56.6673 119.666 55.2131 119.666C53.3893 119.666 52.4773 120.579 50.6535 122.403C48.8296 124.228 46.0938 125.141 44.2699 121.491C42.4461 117.841 44.2699 115.104 46.0938 115.104C47.9177 115.104 46.0938 111.455 44.2699 104.155C42.4461 96.8563 45.1819 95.9438 47.9177 95.0315C50.1063 94.3015 54.9092 96.5521 55.2132 97.7686Z" fill="#F4E3BD"/>
<path fill-rule="evenodd" clip-rule="evenodd" d="M40.7372 6.41171C41.7308 6.24603 42.6705 6.91759 42.8361 7.91168C42.9043 8.32137 43.0433 8.80988 43.2444 9.22301C43.4586 9.66284 43.6509 9.83118 43.7217 9.87148C44.0627 10.0656 44.4631 10.2334 44.984 10.4517C45.1939 10.5396 45.4234 10.6357 45.6764 10.7451C46.4268 11.0694 47.428 11.5307 48.1841 12.2252C48.4259 12.4473 48.7315 12.6044 49.1926 12.6139C51.0934 12.6533 53.4025 13.7977 54.1966 15.9477C54.6214 17.0979 55.2786 17.7503 56.2693 17.8624C57.3836 17.9885 58.4378 18.4957 59.2538 19.1976C60.0681 19.898 60.7718 20.9049 60.9735 22.1285C61.0549 22.6224 61.1938 22.9744 61.347 23.201C61.4813 23.3996 61.633 23.5173 61.8528 23.5854C62.9193 23.9156 64.0703 24.6002 65.023 25.3706C65.9557 26.1249 66.9363 27.1529 67.4255 28.3046C67.5626 28.6274 67.7535 28.9525 68.0168 29.2691C68.647 30.0272 68.981 30.943 69.1649 31.7386C69.3531 32.5527 69.4154 33.3777 69.4133 34.0749C69.4124 34.3908 69.5008 34.8657 69.9126 35.4837C70.4714 36.3223 70.2449 37.4552 69.4068 38.0142C68.5687 38.5733 67.4363 38.3467 66.8775 37.5081C66.0939 36.3321 65.7623 35.1558 65.7656 34.0638C65.7671 33.5738 65.7214 33.0386 65.611 32.561C65.4963 32.0649 65.341 31.7576 65.2124 31.603C64.7144 31.004 64.3399 30.3716 64.0683 29.7319C63.9174 29.3766 63.463 28.8018 62.73 28.209C62.0169 27.6323 61.2714 27.2257 60.7744 27.0718C58.509 26.3704 57.6435 24.3545 57.3744 22.7224C57.3433 22.5338 57.2028 22.2463 56.8759 21.965C56.5506 21.6853 56.1664 21.5236 55.8592 21.4888C52.9919 21.1643 51.47 19.0943 50.775 17.2127C50.6292 16.8178 49.9275 16.2795 49.1172 16.2627C47.7044 16.2335 46.5639 15.6913 45.7173 14.9137C45.466 14.6829 44.9959 14.4266 44.2297 14.0954C44.087 14.0337 43.9276 13.9671 43.7581 13.8962C43.173 13.6516 42.4682 13.357 41.9175 13.0434C40.9429 12.4885 40.3352 11.5816 39.965 10.8211C39.5818 10.034 39.3522 9.19719 39.238 8.51167C39.0724 7.51757 39.7436 6.57739 40.7372 6.41171Z" fill="#F77007"/>
<path fill-rule="evenodd" clip-rule="evenodd" d="M83.9414 28.0307C85.0886 27.0469 86.8157 27.1798 87.799 28.3276C88.6095 29.2737 89.6474 30.73 90.1332 32.2627C90.3757 33.0277 90.5822 34.1258 90.238 35.2785C89.8447 36.5955 88.8753 37.5219 87.656 37.994C87.5495 38.0353 87.4521 38.0871 87.3726 38.1411C87.5536 39.2225 87.6608 40.6686 87.1654 42.0161C86.8604 42.8457 86.3201 43.6561 85.4603 44.2609C84.6186 44.8529 83.6514 45.1212 82.6853 45.1889C82.6853 45.189 82.6495 45.1929 82.5808 45.2238C82.5061 45.2574 82.4134 45.314 82.3177 45.3968C82.1063 45.5797 82.0112 45.7722 81.9896 45.8529C81.6735 47.0354 81.0433 48.2765 79.9144 49.278C78.7887 50.2768 77.3379 50.8857 75.6328 51.0911C75.6277 51.0961 75.6238 51.1009 75.621 51.1047C75.3847 52.6252 74.7405 54.5544 73.122 55.9459C72.7883 56.2327 72.3066 56.7938 71.8765 57.4865C71.4309 58.2043 71.2185 58.7776 71.1747 59.0486C70.9777 60.2673 70.4268 61.4793 69.4072 62.5067C68.4089 63.5127 67.0817 64.2222 65.4989 64.6746C64.0461 65.0899 62.5319 64.2483 62.1168 62.7947C61.7017 61.3412 62.543 59.8262 63.9958 59.4109C64.9173 59.1475 65.3415 58.8339 65.5244 58.6496C65.6861 58.4867 65.7464 58.341 65.7733 58.1746C65.9812 56.8885 66.6034 55.605 67.2285 54.5981C67.869 53.5663 68.6939 52.535 69.556 51.7939C69.8053 51.5795 70.0872 51.0971 70.2165 50.2496C70.5754 47.8973 72.521 45.9386 74.9527 45.659C75.7505 45.5673 76.1156 45.3317 76.284 45.1822C76.4615 45.0248 76.6086 44.7947 76.7038 44.4385C77.0477 43.1521 77.8207 42.0503 78.7386 41.256C79.6002 40.5106 80.7452 39.9034 82.0513 39.7514C82.0443 39.5034 82.007 39.1897 81.9333 38.8088C81.625 37.2162 82.1711 35.8307 82.9482 34.8536C83.4398 34.2355 84.0441 33.7443 84.678 33.3728C84.6138 33.252 84.5381 33.1207 84.4502 32.9802C84.2104 32.5969 83.9242 32.2166 83.6447 31.8903C82.6613 30.7425 82.7942 29.0145 83.9414 28.0307ZM84.9517 34.0541C84.9514 34.054 84.9505 34.0487 84.9496 34.0387C84.9515 34.0492 84.9519 34.0542 84.9517 34.0541Z" fill="#F77007"/>
<path fill-rule="evenodd" clip-rule="evenodd" d="M43.8197 57.6214C45.2531 57.1434 46.8024 57.9184 47.2802 59.3526C47.5266 60.0921 48.5042 61.7004 50.3831 62.4829C52.9199 63.5394 55 65.6729 56.1647 67.9789C56.5369 68.7156 57.0829 69.2823 57.9107 69.5851C61.0865 70.747 64.5084 73.6188 65.9306 76.9388C66.2638 77.7167 66.7737 78.3747 67.557 78.8529C69.246 79.8838 70.6972 81.4236 71.5824 83.2649C71.645 83.3952 71.7123 83.5213 71.784 83.6418C72.0141 84.0287 72.2504 84.4346 72.4944 84.8538C73.0482 85.8049 73.6417 86.8243 74.2927 87.8457C75.2436 89.3377 76.1225 90.5127 76.8446 91.1603C77.0646 91.3575 77.3263 91.5235 77.7783 91.8102C77.9537 91.9215 78.1578 92.0509 78.3992 92.2074C79.062 92.6371 80.1492 93.3632 80.8815 94.4559C81.6046 95.5348 82.2494 96.0185 82.556 96.1112C82.8895 96.212 83.2328 96.2648 83.7881 96.3502C83.9221 96.3707 84.0684 96.3932 84.2299 96.4188C84.9368 96.5305 85.9588 96.7071 86.9522 97.1742C87.171 97.2771 87.3726 97.3593 87.5532 97.422C87.6577 96.0057 88.8393 94.8892 90.2815 94.8892C91.7924 94.8892 93.0173 96.1146 93.0173 97.6264C93.0173 98.7457 92.8185 99.8984 92.2076 100.897C91.5496 101.973 90.5629 102.623 89.4935 102.894C87.6468 103.363 85.761 102.663 84.6249 102.129C84.3953 102.021 84.0522 101.933 83.3763 101.826C83.2915 101.813 83.1967 101.798 83.0939 101.783C82.5279 101.698 81.7178 101.577 80.9735 101.352C78.7807 100.689 77.2326 98.841 76.337 97.5047C76.338 97.5062 76.2896 97.4364 76.121 97.2965C75.9529 97.157 75.7309 97.0007 75.4239 96.8017C75.3378 96.7459 75.2343 96.6808 75.1182 96.6077C74.5862 96.2731 73.7897 95.7722 73.1927 95.2369C71.8742 94.0545 70.6608 92.3291 69.6792 90.789C68.9666 89.6708 68.2748 88.483 67.7011 87.4979C67.4742 87.1083 67.2657 86.7503 67.0817 86.441C66.9225 86.1733 66.7796 85.9042 66.6515 85.6377C66.251 84.8046 65.5505 84.0408 64.7073 83.5261C62.8206 82.3745 61.6166 80.7648 60.9014 79.0954C60.1604 77.3655 58.0132 75.4515 56.0316 74.7265C53.6652 73.8608 52.1572 72.1821 51.2813 70.448C50.6288 69.1562 49.4634 68.0296 48.2804 67.5369C44.6625 66.0302 42.7326 63.0144 42.0894 61.0837C41.6116 59.6496 42.3862 58.0995 43.8197 57.6214Z" fill="#F77007"/>
</svg>
