<svg width="401" height="99" viewBox="0 0 401 99" fill="none" xmlns="http://www.w3.org/2000/svg">
<path fill-rule="evenodd" clip-rule="evenodd" d="M113.845 7.24465C110.564 5.80706 107.084 7.60349 106.216 10.28L101.597 24.5305C101.169 25.85 101.745 27.5323 103.528 28.3135C105.413 29.1398 107.514 28.4218 108.442 27.023L117.857 12.8386C118.819 11.3887 118.408 9.24402 116.288 8.31534L113.845 7.24465ZM116.565 1.07046C109.855 -1.8697 101.961 1.48661 99.7828 8.20531L95.1631 22.4558C93.6101 27.2464 96.0238 32.3913 100.808 34.4877C105.592 36.5841 111.267 34.9839 114.08 30.7455L123.495 16.5611C126.886 11.4516 124.775 4.66835 119.008 2.14114L116.565 1.07046Z" fill="#FF4C00"/>
<path d="M60.0025 13.6121C71.2894 0.523436 90.3434 -2.61042 105.237 6.17228L113.729 11.18C123.168 16.7465 128.962 26.8784 128.965 37.8265C128.967 42.3595 127.573 46.7834 124.973 50.4992L98.9997 87.6216C91.817 97.8872 78.4425 101.767 66.8708 96.9418C54.1592 91.6413 42.5142 84.0849 32.4996 74.6387L29.9587 72.242C28.6493 71.0069 27.839 69.335 27.6814 67.5432C26.8419 57.9986 29.8996 48.5201 36.1603 41.2601L60.0025 13.6121Z" fill="#F6F6F5"/>
<path fill-rule="evenodd" clip-rule="evenodd" d="M102.011 11.6145C89.7632 4.39215 74.0935 6.96747 64.8084 17.7347L40.9661 45.3828C35.8203 51.3501 33.3058 59.1425 33.9961 66.9906C34.0183 67.243 34.1323 67.4769 34.3142 67.6485L30.0074 72.1906L34.3143 67.6485L36.8552 70.0452C46.3135 78.9667 57.3113 86.103 69.3159 91.1087C78.1318 94.7848 88.3245 91.831 93.8014 84.0034L119.775 46.881C121.632 44.2276 122.627 41.0674 122.626 37.8285C122.623 29.1124 118.011 21.05 110.503 16.6223L102.011 11.6145ZM105.237 6.17228C90.3434 -2.61042 71.2894 0.523437 60.0025 13.6121L36.1603 41.2601C29.8996 48.5201 26.8419 57.9986 27.6814 67.5432C27.839 69.335 28.6493 71.0069 29.9587 72.242L32.4996 74.6387C42.5142 84.0849 54.1592 91.6413 66.8708 96.9418C78.4425 101.767 91.817 97.8872 98.9997 87.6216L124.973 50.4992C127.573 46.7834 128.967 42.3595 128.965 37.8265C128.962 26.8784 123.168 16.7465 113.729 11.18L105.237 6.17228Z" fill="#FF4C00"/>
<path d="M49.0053 22.5083C54.6921 16.0467 64.2923 14.4996 71.7962 18.8354L95.971 32.0416C100.727 34.7896 103.646 39.7915 103.648 45.1964C103.649 47.4342 102.946 49.6182 101.637 51.4526L88.5499 69.7791C84.931 74.847 78.1923 76.7624 72.362 74.3803C65.9574 71.7636 40.194 57.2992 35.1482 52.6358L33.868 51.4526C33.2083 50.8429 32.8 50.0175 32.7206 49.1329C32.2977 44.4209 33.8383 39.7416 36.9926 36.1575L49.0053 22.5083Z" fill="#F6F6F5"/>
<path fill-rule="evenodd" clip-rule="evenodd" d="M69.2031 23.426L69.1482 23.3943C63.8073 20.3082 56.9834 21.4297 52.9752 25.984L40.9626 39.6332C38.8948 41.9826 37.8304 44.9854 37.9423 48.0353L38.7387 48.7713C39.602 49.5692 41.767 51.1129 45.0327 53.1915C48.1697 55.1883 51.9909 57.4728 55.8837 59.711C63.7938 64.2589 71.5401 68.351 74.3645 69.5049C77.9574 70.9729 82.0719 69.7688 84.2472 66.7227L97.3338 48.3962C98.0104 47.4486 98.3657 46.3323 98.3653 45.1981C98.3642 41.7234 96.4974 38.4575 93.3722 36.629L69.2031 23.426ZM95.971 32.0416C100.727 34.7896 103.646 39.7915 103.648 45.1964C103.649 47.4342 102.946 49.6182 101.637 51.4526L88.5499 69.7791C84.9309 74.847 78.1923 76.7624 72.362 74.3803C65.9574 71.7636 40.194 57.2992 35.1482 52.6358L33.868 51.4526C33.2083 50.8429 32.8 50.0175 32.7206 49.1329C32.2977 44.4209 33.8383 39.7416 36.9926 36.1575L49.0053 22.5083C54.6921 16.0467 64.2923 14.4996 71.7962 18.8354L95.971 32.0416Z" fill="#FF4C00"/>
<path d="M52.4947 49.5706C50.0576 49.1567 47.7376 50.8012 47.3129 53.2437C46.8881 55.6863 48.5194 58.002 50.9565 58.416L63.999 60.6314L60.943 70.6898C60.2121 73.0954 61.5604 75.6086 63.9544 76.3031C66.3485 76.9976 68.8818 75.6104 69.6126 73.2048L74.093 58.4582C74.8238 56.0525 73.4756 53.5394 71.0815 52.8449C71.0761 52.8433 71.0707 52.8418 71.0654 52.8402C70.7597 52.7129 70.4348 52.6179 70.0942 52.5601L52.4947 49.5706Z" fill="#F6F6F5"/>
<path fill-rule="evenodd" clip-rule="evenodd" d="M71.0817 52.8449C73.4758 53.5394 74.8241 56.0526 74.0932 58.4582L69.6129 73.2048C68.882 75.6105 66.3487 76.9976 63.9547 76.3031C61.5606 75.6086 60.2123 73.0955 60.9432 70.6898L63.9992 60.6314L50.9567 58.416C48.5196 58.002 46.8883 55.6863 47.3131 53.2438C47.7378 50.8012 50.0578 49.1567 52.4949 49.5706L70.0945 52.5601C70.435 52.618 70.7599 52.713 71.0656 52.8402L71.0817 52.8449ZM72.8134 47.864C72.2272 47.6416 71.6144 47.4738 70.9813 47.3663L53.3818 44.3768C48.0486 43.4709 43.026 47.0663 42.1084 52.3434C41.1886 57.6326 44.724 62.7018 50.0699 63.6098L57.2063 64.822L55.8878 69.1619C54.32 74.3221 57.2096 79.8334 62.4794 81.3621C67.7031 82.8775 73.1134 79.8506 74.6683 74.7327L79.1486 59.9861C80.6908 54.9102 77.92 49.4946 72.8134 47.864Z" fill="#FF4C00"/>
<path d="M30.4291 56.3994C28.7821 55.1341 27.9176 53.0156 28.3813 50.868L30.8034 39.6521C31.3696 37.0304 33.991 35.3519 36.6587 35.9031C40.1085 36.6158 42.3116 39.9421 41.5794 43.3324L41.279 44.7236L49.2165 46.2782C51.0516 46.6376 52.231 48.3869 51.8509 50.1854L50.1113 58.4169C49.7312 60.2154 47.9354 61.3821 46.1003 61.0227L32.9071 58.4388C31.7354 58.2093 30.8309 57.4132 30.4291 56.3994Z" fill="#F6F6F5"/>
<path fill-rule="evenodd" clip-rule="evenodd" d="M25.3764 60.3661C22.659 57.6352 21.3018 53.6251 22.1846 49.537L24.6067 38.3211M25.3764 60.3661C26.7591 62.5226 28.9952 64.1159 31.6858 64.6429L44.879 67.2267C50.0311 68.2357 55.2012 64.9865 56.314 59.7211L58.0536 51.4896C59.1813 46.1538 55.6538 41.096 50.438 40.0745L47.8169 39.5612C46.842 34.7402 43.0401 30.7651 37.9446 29.7124C31.9439 28.4726 25.9221 32.2298 24.6067 38.3211M30.4292 56.3996C28.7822 55.1343 27.9177 53.0157 28.3814 50.8682L30.8035 39.6523C31.3696 37.0306 33.9911 35.3521 36.6588 35.9033C39.8744 36.5676 42.0068 39.5028 41.6885 42.6439C41.6654 42.8727 41.6292 43.1025 41.5795 43.3326L41.2791 44.7238L49.2166 46.2784C51.0516 46.6378 52.2311 48.3871 51.851 50.1856L50.1113 58.4171C49.7312 60.2156 47.9355 61.3822 46.1004 61.0229L32.9072 58.439C31.7355 58.2095 30.831 57.4134 30.4292 56.3996Z" fill="#FF4C00"/>
<path d="M26.0773 67.3894C24.6511 69.4942 25.2449 72.3033 27.4036 73.6638C29.5623 75.0242 32.4684 74.4208 33.8946 72.316L40.2189 62.9828L45.4053 66.0907C48.1569 67.7396 51.7894 66.9007 53.5189 64.2171C54.5114 62.6769 54.0359 60.6611 52.4567 59.7148L42.0366 53.4705C41.6602 53.2449 41.2629 53.0785 40.8562 52.9686C38.753 51.9219 36.1154 52.5756 34.7783 54.5487L26.0773 67.3894Z" fill="#F6F6F5"/>
<path fill-rule="evenodd" clip-rule="evenodd" d="M26.0771 67.3892L21.7005 64.4391L30.4015 51.5984L34.7781 54.5485L26.0771 67.3892ZM53.5187 64.2169L57.9624 67.0656C54.68 72.1591 47.869 73.7135 42.6846 70.6067L41.7911 70.0712L38.2711 75.266C35.24 79.7392 29.1429 80.9921 24.5817 78.1175C19.9139 75.1759 18.5976 69.0183 21.7005 64.4391L26.0771 67.3892C24.6509 69.494 25.2447 72.3031 27.4034 73.6636C29.5621 75.024 32.4682 74.4206 33.8944 72.3158L40.2187 62.9826L45.4051 66.0905C48.1567 67.7394 51.7892 66.9005 53.5187 64.2169ZM42.0364 53.4703C41.66 53.2447 41.2627 53.0783 40.856 52.9684C38.7528 51.9217 36.1152 52.5754 34.7781 54.5485L30.4015 51.5984C33.149 47.5437 38.3963 46.1483 42.7402 48.0334C43.4336 48.2606 44.1106 48.5668 44.7569 48.9541L55.1771 55.1985C59.2947 57.6659 60.5762 63.0095 57.9624 67.0656L53.5187 64.2169C54.5112 62.6767 54.0357 60.6609 52.4565 59.7146L42.0364 53.4703Z" fill="#FF4C00"/>
<path d="M22.3185 89.0095C22.1194 88.9535 21.9213 88.8862 21.7251 88.8072L9.76036 83.9924C7.36394 83.0281 6.21012 80.2798 7.18322 77.8541C8.61782 74.2779 12.6448 72.5313 16.1777 73.953L17.3615 74.4294L21.4717 67.901C22.5146 66.2445 24.6896 65.7406 26.3296 66.7755L33.9432 71.5799C35.5832 72.6148 36.0672 74.7966 35.0243 76.4531L29.2049 85.6962C28.9595 86.2596 28.6363 86.766 28.2533 87.2076L27.6424 88.1779C26.5994 89.8345 24.4245 90.3384 22.7844 89.3035L22.3185 89.0095Z" fill="#F6F6F5"/>
<path fill-rule="evenodd" clip-rule="evenodd" d="M19.5746 94.7565C19.5006 94.7285 19.4268 94.6996 19.3532 94.67L7.38852 89.8552C1.67723 87.5569 -0.942869 81.0909 1.29784 75.5052C3.47331 70.0822 8.86143 66.8033 14.4547 67.1571L16.1034 64.5386C18.9789 59.9713 25.06 58.4926 29.7188 61.4324L37.3323 66.2368L33.9431 71.5796L26.3296 66.7752C24.6896 65.7403 22.5146 66.2442 21.4716 67.9007L17.3614 74.4291L16.1777 73.9527C12.6448 72.531 8.61777 74.2776 7.18317 77.8538C6.21007 80.2795 7.36389 83.0278 9.76031 83.9921L21.725 88.8069C21.9213 88.8859 22.1194 88.9532 22.3185 89.0092L22.7844 89.3032C24.4244 90.3381 26.5994 89.8342 27.6423 88.1776L28.2533 87.2073C28.6362 86.7657 28.9595 86.2593 29.2048 85.6959L35.0242 76.4528L40.3925 79.815L34.7825 88.7255C34.3985 89.5075 33.9374 90.2362 33.411 90.9039L33.0106 91.5398C30.1718 96.0487 24.2089 97.5475 19.5746 94.7565ZM33.9431 71.5796C35.5832 72.6145 36.0672 74.7963 35.0242 76.4528L33.9431 71.5796ZM40.3925 79.815L35.0242 76.4528L40.3925 79.815ZM40.3925 79.815C43.2595 75.2614 41.9763 69.1673 37.3323 66.2368L40.3925 79.815Z" fill="#FF4C00"/>
<rect x="36.8271" y="65.9028" width="1.41839" height="6.32401" transform="rotate(33.0589 36.8271 65.9028)" fill="#FF4C00"/>
<path fill-rule="evenodd" clip-rule="evenodd" d="M267.002 48.1398C266.791 48.229 266.587 48.3337 266.387 48.455C266.387 48.455 263.912 49.957 260.146 52.4282L240.14 52.3721C237.269 52.3662 236.693 53.365 236.686 56.2756C236.683 59.1866 240.342 61.5546 243.213 61.5609L250.523 61.5848C245.674 65.2608 240.793 69.2882 236.849 73.2308C234.919 75.1589 236.23 76.9529 238.131 78.9098C240.032 80.8663 242.813 80.5757 245.07 78.9621C246.575 77.7605 247.999 76.7352 249.422 75.7103L249.422 75.7103C250.919 74.6325 252.415 73.5552 254.004 72.2742V85.372C254.04 86.9746 254.811 88.4678 256.091 89.4134C257.366 90.3587 258.849 90.9001 261.854 90.199C261.854 90.199 267.602 88.0976 270.736 87.1678C274.217 86.0143 275.553 85.372 275.553 85.372C278.134 84.2454 279.848 80.2694 276.026 77.8969C273.128 76.0977 272.9 76.1554 271.837 76.4243C271.784 76.4377 271.729 76.4516 271.672 76.4658C271.631 76.476 271.588 76.4863 271.544 76.4968C271.544 76.4968 269.289 76.8148 267.878 77.2602L264.015 78.4064L264.176 65.9379C264.165 65.5442 264.114 65.1622 264.024 64.7961C265.093 64.038 265.88 63.6533 266.483 63.3585C266.917 63.1465 267.256 62.981 267.535 62.7567L269.289 61.6302C269.593 62.1913 269.908 62.7972 270.242 63.4393L270.242 63.4399C274.474 71.5839 281.731 85.5526 309.231 87.8415C311.979 88.4273 314.68 86.6397 315.258 83.8521C315.836 81.0643 314.073 78.3254 311.325 77.7396C310.471 77.5576 309.365 77.3534 308.149 77.1291C304.721 76.4965 300.425 75.7037 298.48 74.795C302.948 68.9571 306.701 64.8273 310.405 61.1152C310.659 60.8597 310.884 60.5832 311.073 60.2915C312.084 59.3315 312.72 57.9663 312.724 56.4511C312.727 53.5405 310.405 52.5318 307.533 52.5259L277.132 52.4639C276.743 49.2901 274.068 46.8307 270.837 46.8307C269.393 46.8307 268.067 47.3184 267.002 48.1398ZM282.679 61.6556C284.391 63.9967 286.612 66.5523 289.425 68.9571C289.734 68.5623 290.105 68.2073 290.534 67.9072C291.499 66.8298 292.461 66.028 293.352 65.2857C294.667 64.1888 295.827 63.2219 296.613 61.6881L282.679 61.6556ZM256.272 19.5653C255.044 19.6556 251.331 19.6165 250.452 19.4576C249.63 19.3094 249.031 19.1004 248.671 18.7026C248.221 18.2068 248.24 17.5355 248.255 17.0112L248.256 16.968C248.282 16.164 248.256 15.9927 248.256 15.9927C248.256 13.3783 246.89 13.1349 244.748 12.7533L244.747 12.7532C244.618 12.7301 244.485 12.7065 244.35 12.6818C241.477 12.1576 239.596 13.1781 238.84 15.4966C238.84 15.4966 236.717 21.4142 240.908 26.0447C242.813 28.444 250.158 28.6862 256.272 28.4075V31.5655C248.256 31.5655 242.33 31.9615 239.669 34.8323C234.751 40.1448 237.295 48.0417 237.295 48.0417C237.668 50.3354 240.696 50.3284 243.265 50.3226C243.351 50.3224 243.436 50.3222 243.521 50.3221C243.563 50.322 243.605 50.322 243.647 50.322C245.486 50.322 247.49 49.304 247.49 46.7141C247.49 46.7141 247.023 42.5057 248.488 41.4966C249.953 40.4875 251.499 40.4512 256.272 40.4512V43.9949C256.272 47.0205 258.693 48.1173 261.677 48.1173C264.658 48.1173 267.082 47.0205 267.082 43.9949V14.2763C267.082 11.2503 264.658 10.1535 261.677 10.1535C258.693 10.1535 256.272 11.2503 256.272 14.2763V19.5653ZM285.959 18.7439L272.212 18.7199C269.199 18.7136 269.074 21.1915 269.067 24.2503C269.06 27.3088 269.864 29.7973 272.881 29.8036L285.959 29.8276V36.1343L277.307 36.1163C274.519 36.1163 274.513 38.5649 274.506 41.604L274.506 41.6467C274.499 44.7052 275.605 47.1937 278.622 47.2H303.616C306.633 47.2062 307.75 44.7281 307.758 41.6696C307.761 38.6107 306.655 36.1226 303.638 36.1159L296.633 36.1598V29.8534L310.308 29.815C313.321 29.8213 314.339 27.3435 314.346 24.2846C314.354 21.2261 313.346 18.7376 310.329 18.7313L296.633 18.7693V12.4234C296.633 9.06115 293.943 7.69116 290.628 7.69116C287.313 7.69116 285.959 9.06115 285.959 12.4234V18.7439ZM331.7 47.8936V85.9865C331.7 88.9241 334.051 91.309 336.949 91.309C339.842 91.309 342.194 90.2837 342.194 87.3462L343.023 34.3047L345.305 27.2724C348.206 22.9225 343.038 19.9878 339.173 19.9878C335.927 19.4898 333.655 24.3534 331.498 28.9722C330.45 31.2142 329.43 33.3985 328.338 34.8839L321.657 45.0721C319.89 48.0517 318.087 51.2279 320.32 52.938C321.76 54.0403 324.91 54.9775 326.914 52.938L331.7 47.8936ZM374.964 16.0103L368.486 15.9878V13.3216C368.486 10.5971 367.641 9.74512 364.955 9.74512C362.269 9.74512 358.752 10.5971 358.752 13.3216V15.9672L355.088 15.951C352.772 15.9462 350.886 16.4918 350.878 18.8436L350.878 19.055C350.872 21.3868 350.863 24.4731 353.737 24.4731L358.752 24.4894V26.9042C358.752 27.6997 358.937 28.4518 359.268 29.118L349.536 29.0944C346.519 29.0882 345.406 30.2064 345.398 33.2652C345.391 36.3237 346.497 38.8122 349.514 38.8185L351.792 38.8284C351.633 38.8604 351.472 38.8856 351.312 38.9108C350.46 39.0445 349.614 39.1772 349.051 40.3153L345.305 46.8245C343.706 48.4803 342.694 52.1128 345.71 53.2391C346.884 53.677 348.383 53.9189 349.719 52.5592L352.392 49.84C350.63 53.1957 351.866 54.8368 352.661 55.8911C353.154 56.5454 353.477 56.9737 352.806 57.4455C352.522 57.6454 352.172 57.8382 351.783 58.0518C349.777 59.1548 346.766 60.8102 346.766 66.8355C346.766 70.1505 348.103 72.9539 348.103 72.9539V86.5675C348.103 89.8464 350.112 90.889 353.344 90.889C356.575 90.889 358.482 89.8464 358.482 86.5675V77.002H367.76V84.7979C367.76 87.5507 370.39 88.5897 373.105 88.5897C375.82 88.5897 376.256 87.5507 376.256 84.7979V77.002H387.434V87.4051C387.434 90.0783 389.571 90.889 392.207 90.889C394.842 90.889 398.319 90.0783 398.319 87.4051V77.9303C398.319 77.3832 398.232 75.4978 398.065 75.0067C400.5 71.5942 400.5 70.9144 400.5 66.8354C400.5 63.4364 398.495 60.0373 394.6 58.2839C397.159 57.318 397.969 53.4179 397.969 51.1996C397.969 43.0417 390.478 41.3527 386.656 41.3527H365.577C363.49 41.3527 362.738 41.4505 362.054 41.5395C361.483 41.6139 360.958 41.6821 359.742 41.6821C358.531 41.3527 357.527 40.9879 356.63 40.3153C355.733 39.6426 354.907 39.0375 353.908 38.8329L395.164 38.9295C398.181 38.9361 399.298 36.4579 399.305 33.3994C399.309 30.3406 398.203 29.2117 395.189 29.2054L384.149 29.1792C384.502 28.4983 384.698 27.7244 384.698 26.9042V24.5531L388.798 24.5701C393.03 24.5701 393.018 21.6412 393.008 19.3333C393.008 19.2063 393.007 19.0812 393.008 18.9586C393.011 16.6068 391.132 16.0531 388.817 16.0483L384.698 16.031V13.3216C384.698 10.5971 381.181 9.74512 378.494 9.74512C375.808 9.74512 374.964 10.5971 374.964 13.3216V16.0103ZM368.939 63.4792H362.03C359.742 63.4792 357.737 64.4561 357.737 66.4956C357.737 68.535 358.406 69.5136 360.41 69.5136H368.706C368.672 69.4058 368.596 69.2908 368.501 69.1468C368.216 68.7154 367.76 68.0248 367.76 66.4956C367.76 65.9009 368.414 64.5592 368.78 63.8082C368.843 63.6787 368.897 63.5667 368.939 63.4792ZM376.326 63.4792C376.392 63.5324 376.457 63.5835 376.52 63.6337C377.221 64.1848 377.782 64.6263 377.782 66.4956C377.782 67.9898 377.196 68.6834 376.829 69.1168C376.695 69.2749 376.591 69.3984 376.555 69.5136H386.098C386.999 69.5136 389.141 68.8749 389.141 66.4956C389.141 64.1162 387.993 63.4792 385.416 63.4792H376.326ZM370.18 50.2008H365.755C363.262 50.2008 360.693 50.2008 360.41 53.1513C360.197 55.3739 361.078 55.7135 365.087 55.7135H370.522C370.383 55.4894 370.172 55.3639 369.949 55.2312C369.472 54.9468 368.939 54.6294 368.939 53.2391C368.939 51.9964 369.484 51.235 369.864 50.7046C370.003 50.5096 370.121 50.3458 370.18 50.2008ZM377.753 50.2008C377.761 50.2879 377.866 50.4018 378.015 50.5629C378.412 50.9921 379.119 51.7562 379.119 53.2391C379.119 55.092 378.529 55.2417 378.016 55.3718C377.776 55.4326 377.553 55.4892 377.415 55.7135H380.455C380.931 55.7135 381.434 55.7312 381.945 55.7491C384.762 55.8478 387.805 55.9545 387.805 53.1513C387.805 50.0757 382.44 50.168 380.77 50.1968C380.642 50.199 380.535 50.2008 380.455 50.2008H377.753ZM368.486 24.51V26.9042C368.486 27.7071 368.297 28.4659 367.959 29.1365L375.502 29.1608C375.16 28.4843 374.964 27.7171 374.964 26.9042V24.5325L368.486 24.51ZM188.921 25.6709V30.4323C188.303 28.7032 186.667 27.4663 184.752 27.4663C182.302 27.4663 181.653 29.4818 181.653 31.9645C181.653 34.4471 182.302 36.4626 184.752 36.4626C186.951 36.4626 188.783 34.8316 189.128 32.697C189.673 34.3936 191.247 35.6209 193.101 35.6209C193.686 35.6209 194.242 35.4993 194.747 35.2796V36.9658L189.037 36.9828C189.037 36.9828 187.558 36.988 185.642 36.995C179.212 37.0178 173.527 40.9681 171.11 46.8384C171.241 46.0923 171.31 45.3243 171.31 44.5402C171.31 42.542 171.047 40.7277 170.805 39.0521C170.662 38.0677 170.527 37.1312 170.456 36.2333C170.361 35.0421 170.501 33.9741 170.646 32.8696C170.764 31.9692 170.884 31.0446 170.884 30.0094C170.884 23.7486 165.872 18.6654 159.7 18.6654C153.528 18.6654 148.515 23.7486 148.515 30.0094C148.515 30.807 148.569 31.543 148.622 32.2571C148.707 33.4128 148.788 34.5114 148.628 35.7216C148.496 36.7121 148.004 37.7931 147.474 38.9599C147.364 39.2019 147.252 39.4476 147.141 39.697C146.483 41.1893 145.869 42.8085 145.869 44.5402C145.869 51.6614 151.569 57.4429 158.591 57.4429C163.738 57.4429 168.176 54.3331 170.179 49.8663L168.647 56.6382L167.319 66.9877L165.974 85.1906C165.974 87.2301 166.642 89.92 169.315 90.6292C171.988 91.3384 174.607 91.676 175.262 89.0101L177.364 67.2668C177.714 67.3985 177.888 67.508 178.024 67.5935C178.254 67.7375 178.375 67.8136 179.041 67.8136H181.766C181.294 68.6383 181.021 69.5905 181.021 70.604C181.021 72.0783 181.595 73.4232 182.537 74.4356C182.281 74.7024 182.031 74.8677 181.79 75.0274C181.11 75.4778 180.499 75.8829 180.006 78.3924C179.473 81.1001 180.648 82.2528 181.491 83.0807C181.707 83.2921 181.9 83.4823 182.039 83.6718C181.264 84.5817 180.839 85.795 180.952 87.0853C181.17 89.6221 183.38 91.5016 185.881 91.2797L195.14 90.3392C199.382 89.9494 202.164 87.8776 201.946 85.3408C201.548 80.7216 198.185 80.9249 195.684 81.1468L192.522 81.427C192.54 81.3288 192.618 81.2202 192.72 81.0787C192.972 80.7273 193.369 80.173 193.369 79.0723C193.369 78.1155 192.989 77.8664 192.75 77.7096C192.649 77.6436 192.573 77.5939 192.562 77.5147L197.378 77.1461C200.609 76.353 200.609 75.5478 200.609 73.6337C200.609 70.5786 197.495 70.5786 195.609 70.5786H192.685C192.678 69.5747 192.409 68.6313 191.936 67.8136H203.583C203.106 68.6383 202.834 69.5905 202.834 70.604C202.834 72.0783 203.408 73.4232 204.353 74.4356C203.372 75.455 202.772 76.3178 202.772 78.3924C202.772 80.467 203.186 81.5301 203.892 82.4713C203.277 83.2584 202.906 83.831 202.906 86.6951C202.906 89.2415 204.946 91.309 207.457 91.309L223.504 89.9494C226.016 89.9494 228.055 87.8819 228.055 85.3355C228.055 82.7891 226.016 80.7216 223.504 80.7216L214.2 82.0812C214.246 81.9285 214.406 81.7801 214.608 81.5931C215.077 81.1575 215.773 80.5129 215.773 79.1171C215.773 77.1084 215.044 77.1804 214.614 77.2228C214.452 77.2388 214.332 77.2506 214.309 77.1461H218.876C222.296 77.1461 224.773 76.1551 224.773 72.9539C224.773 70.2346 220.762 70.2099 218.876 70.2099H214.484C214.422 69.3439 214.164 68.5306 213.749 67.8136H217.978C222.762 67.8136 226.647 63.8729 226.647 59.0193C226.647 54.1654 222.762 50.2251 217.978 50.2251H212.351C212.283 49.8114 212.275 49.4153 212.267 49.0438C212.248 48.1405 212.232 47.3832 211.372 46.8753L221.649 46.8414C224.357 46.8333 226.549 44.5966 226.542 41.85C226.535 39.103 224.328 36.8792 221.62 36.8873L203.108 36.9415V35.5096C203.413 35.5822 203.733 35.6209 204.06 35.6209C206.368 35.6209 208.24 33.7212 208.24 31.3812V25.6709H217.211V31.1298C216.822 29.0453 215.019 27.4663 212.853 27.4663C210.403 27.4663 209.751 29.4818 209.751 31.9645C209.751 34.4471 210.403 36.4626 212.853 36.4626C215.143 36.4626 217.033 34.6926 217.262 32.4268C217.582 34.4456 219.308 35.9896 221.391 35.9896C223.696 35.9896 225.571 34.0898 225.571 31.7499V26.4775C225.571 22.0999 222.071 18.5511 217.756 18.5511H207.695C203.38 18.5511 199.88 22.0999 199.88 26.4775V29.936C199.575 29.8634 199.255 29.8247 198.928 29.8247C198.342 29.8247 197.786 29.9467 197.281 30.1661V26.4775C197.281 22.0999 193.781 18.5511 189.466 18.5511H179.408C177.336 18.5511 175.348 19.3862 173.88 20.873C172.415 22.3595 171.593 24.3754 171.593 26.4775V32.4872C171.593 34.8272 173.465 36.7269 175.773 36.7269C178.082 36.7269 179.954 34.8272 179.954 32.4872V25.6709H188.921ZM181.714 57.5985H188.118C188.115 57.6774 188.111 57.757 188.111 57.837C188.111 58.7955 188.402 59.6896 188.896 60.4402H180.377C179.88 60.4402 179.041 59.6974 179.041 59.0175C179.041 59.0175 179.041 58.0462 180.006 57.7817C180.815 57.5597 181.292 57.5813 181.573 57.5939C181.627 57.5964 181.673 57.5985 181.714 57.5985ZM196.607 57.5985H203.866C203.862 57.6774 203.859 57.757 203.859 57.837C203.859 58.7955 204.15 59.6896 204.644 60.4402H195.829C196.327 59.6896 196.615 58.7955 196.615 57.837C196.615 57.757 196.611 57.6774 196.607 57.5985ZM212.362 57.837C212.362 57.757 212.359 57.6774 212.355 57.5985H217.137C217.911 57.5985 218.536 58.2352 218.536 59.0193C218.536 59.8035 217.911 60.4402 217.137 60.4402H211.577C212.075 59.6896 212.362 58.7955 212.362 57.837ZM185.675 46.9487L189.098 46.9413C188.296 47.4435 188.296 48.1664 188.296 49.0215C188.296 49.3994 188.297 49.8032 188.228 50.2251H181.712C182.722 48.253 183.407 46.9568 185.675 46.9487ZM195.708 46.9251L204.929 46.8904C204.082 47.3975 204.07 48.148 204.055 49.0416C204.049 49.4137 204.043 49.8106 203.975 50.2251H196.604C196.535 49.8058 196.534 49.4045 196.532 49.0286C196.528 48.1612 196.525 47.4292 195.708 46.9251ZM162.646 45.5274C162.646 43.3125 162.208 41.5145 160.023 41.5145C157.843 41.5145 156.069 41.9532 156.069 44.1678C156.069 46.3824 156.069 47.8005 159.7 47.8005C160.974 47.8005 162.646 47.742 162.646 45.5274ZM163.695 32.0876C163.695 30.1679 162.157 28.6092 160.267 28.6092C158.373 28.6092 156.836 30.1679 156.836 32.0876C156.836 34.0072 158.373 34.206 160.267 34.206C162.157 34.206 163.695 34.0072 163.695 32.0876ZM193.472 9.22932C195.667 9.23411 197.448 11.0472 197.445 13.2762C197.437 15.5048 195.653 17.3106 193.453 17.3058L176.101 17.2693C173.901 17.2645 172.12 15.4514 172.128 13.2224C172.131 10.9938 173.92 9.18803 176.115 9.19282L193.472 9.22932ZM221.322 8.96609C223.518 8.97052 225.299 10.7836 225.295 13.0126C225.288 15.2412 223.503 17.047 221.304 17.0425L203.951 17.0057C201.752 17.0009 199.971 15.1878 199.978 12.9588C199.982 10.7302 201.77 8.92442 203.966 8.92921L221.322 8.96609Z" fill="#FF4C00"/>
</svg>
