<svg width="156" height="145" viewBox="0 0 156 145" fill="none" xmlns="http://www.w3.org/2000/svg">
<path d="M9.8646 131.695L16.9537 130.689L15.5665 120.907L19.012 120.419C25.2694 119.531 30.2174 115.678 29.2234 108.668C28.19 101.381 22.5121 99.8029 16.0567 100.718L5.6805 102.19L9.8646 131.695ZM14.7746 115.323L13.5671 106.808L16.4582 106.398C19.8641 105.915 21.9111 106.675 22.3323 109.646C22.7423 112.537 21.3092 114.396 17.8637 114.885L14.7746 115.323Z" fill="#FF4C00"/>
<path d="M41.1264 125.129L47.6583 122.296L42.4847 110.37C42.355 107.156 43.7966 105.353 45.3379 104.684C46.2553 104.287 46.9428 104.163 47.793 104.012L46.4216 97.9358C45.723 97.9336 44.9462 98.0526 43.6986 98.5938C41.6069 99.5012 39.884 101.862 39.5526 105.319L39.4425 105.367L37.3895 101.941L32.0686 104.249L41.1264 125.129Z" fill="#FF4C00"/>
<path d="M69.7605 110.435C74.4604 107.105 76.2903 100.416 71.9198 94.2478C67.5724 88.1118 60.6552 87.6202 55.9553 90.9501C51.2227 94.3032 49.3928 100.992 53.7402 107.128C58.1107 113.297 65.0279 113.788 69.7605 110.435ZM66.4306 105.735C64.2438 107.285 61.8772 106.02 59.6804 102.919C57.5067 99.8514 57.0984 97.1994 59.2852 95.6501C61.4393 94.1239 63.8059 95.3884 65.9796 98.4564C68.1764 101.557 68.5847 104.209 66.4306 105.735Z" fill="#FF4C00"/>
<path d="M89.5748 105.164C94.1515 100.69 92.562 96.2029 89.0389 92.5987L73.4929 76.6947L68.3727 81.6996L84.0865 97.7753C85.8201 99.5487 86.146 100.74 84.916 101.943C84.4869 102.362 84.0026 102.668 83.4337 102.944L86.2098 107.558C87.1479 107.145 88.1732 106.534 89.5748 105.164ZM68.7096 76.9514C70.3973 75.3017 70.5635 73.1256 68.9977 71.5237C67.4599 69.9505 65.2805 70.0671 63.5929 71.7168C61.9338 73.3385 61.7676 75.5146 63.3054 77.0879C64.8712 78.6897 67.0506 78.5731 68.7096 76.9514Z" fill="#FF4C00"/>
<path d="M101.67 79.7061C103.307 77.6349 104.52 74.6166 104.665 71.7234L99.8438 70.921C99.58 72.8029 99.0141 74.293 97.9971 75.5797C96.2113 77.8391 93.8677 78.7401 91.0231 77.3075L99.3074 66.8261C98.9672 66.3533 98.0936 65.4589 97.0894 64.6652C92.2253 60.8207 86.5066 60.3796 82.4389 65.5262C79.0409 69.8255 79.3195 76.8268 85.0938 81.3906C91.0249 86.0784 97.6021 84.8526 101.67 79.7061ZM87.2771 74.4997C85.4721 72.4613 85.5658 70.343 86.7812 68.8053C88.3934 66.7655 90.3315 67.0227 92.0889 68.4117L87.2771 74.4997Z" fill="#FF4C00"/>
<path d="M115.841 63.2687C117.572 61.6058 119.15 59.0911 119.407 56.1258L114.174 54.6637C113.975 56.1308 113.466 57.5635 112.427 58.5612C110.437 60.4736 107.274 60.1843 104.641 57.4443C102.036 54.7332 101.787 51.6446 104.065 49.4551C104.757 48.7899 105.641 48.4398 106.973 48.3248L106.235 42.7653C103.969 42.8899 101.747 43.6944 99.7567 45.6068C95.1709 50.0135 94.1818 57.0663 99.3923 62.4886C104.631 67.9397 111.227 67.7032 115.841 63.2687Z" fill="#FF4C00"/>
<path d="M129.786 52.9141C131.751 51.6816 132.886 50.4037 133.711 49.4613L130.021 45.6845C129.653 46.1515 129.103 46.7798 128.493 47.1623C127.069 48.0547 125.521 47.845 124.183 45.71L119.572 38.356L124.113 35.5086L121.159 30.7981L116.618 33.6454L113.409 28.5282L108.428 31.6518L110.959 37.1941L108.125 39.3012L110.93 43.7746L113.539 42.1384L118.193 49.5601C121.04 54.1013 124.94 55.9527 129.786 52.9141Z" fill="#FF4C00"/>
<path d="M141.04 47.6318C146.869 45.5202 148.849 41.3567 147.419 37.4078C146.016 33.5342 142.486 33.0685 139.448 33.0203C136.943 33.0343 134.923 33.2129 134.46 31.9343C134.092 30.9188 134.616 30.1335 136.158 29.5749C137.549 29.0708 139.312 29.2405 141.249 29.7725L142.776 24.7098C140.467 23.9722 137.495 23.5174 134.147 24.7299C129.145 26.5418 126.868 30.4725 128.326 34.4966C129.62 38.0694 133.143 38.7504 136.068 38.8395C138.562 38.9143 140.849 38.7667 141.312 40.0454C141.693 41.0985 141.173 42.0103 139.405 42.6506C137.713 43.2636 135.659 43.1142 133.172 42.3558L131.713 47.6066C134.549 48.6217 138.257 48.6399 141.04 47.6318Z" fill="#FF4C00"/>
</svg>
